<?xml version="1.0" encoding="UTF-8" standalone="no"?>
<svg
   height="16"
   viewBox="0 0 16 16"
   width="16"
   version="1.1"
   id="svg1"
   sodipodi:docname="icon.svg"
   xml:space="preserve"
   inkscape:version="1.4 (e7c3feb, 2024-10-09)"
   xmlns:inkscape="http://www.inkscape.org/namespaces/inkscape"
   xmlns:sodipodi="http://sodipodi.sourceforge.net/DTD/sodipodi-0.dtd"
   xmlns="http://www.w3.org/2000/svg"
   xmlns:svg="http://www.w3.org/2000/svg"><defs
     id="defs1" /><sodipodi:namedview
     id="namedview1"
     pagecolor="#ffffff"
     bordercolor="#000000"
     borderopacity="0.25"
     inkscape:showpageshadow="2"
     inkscape:pageopacity="0.0"
     inkscape:pagecheckerboard="0"
     inkscape:deskcolor="#d1d1d1"
     showgrid="false"
     inkscape:zoom="12.278261"
     inkscape:cx="2.361898"
     inkscape:cy="3.1763456"
     inkscape:window-width="1438"
     inkscape:window-height="877"
     inkscape:window-x="0"
     inkscape:window-y="0"
     inkscape:window-maximized="1"
     inkscape:current-layer="svg1"
     inkscape:export-bgcolor="#ffffff00" /><path
     id="path3"
     style="fill:#e0e0e0;fill-opacity:1;stroke:none;stroke-width:0.0880282;stroke-linecap:round;stroke-linejoin:miter;stroke-miterlimit:10;stroke-dasharray:none;stroke-opacity:1;paint-order:markers stroke fill"
     d="M 14.089844 0.21875 A 1.7003353 1.7003353 0 0 0 12.390625 1.9199219 A 1.7003353 1.7003353 0 0 0 12.740234 2.9453125 L 13.136719 2.5585938 L 14.089844 0.3828125 L 14.150391 0.3828125 L 14.5 1.2265625 L 15.150391 0.58984375 A 1.7003353 1.7003353 0 0 0 14.089844 0.21875 z M 15.330078 0.7578125 L 14.599609 1.4707031 L 15.173828 2.8554688 L 13.179688 2.8554688 L 12.900391 3.1289062 A 1.7003353 1.7003353 0 0 0 14.089844 3.6191406 A 1.7003353 1.7003353 0 0 0 15.791016 1.9199219 A 1.7003353 1.7003353 0 0 0 15.330078 0.7578125 z M 14.025391 0.92773438 L 13.441406 2.2597656 L 14.246094 1.4726562 L 14.025391 0.92773438 z M 14.345703 1.7167969 L 13.333984 2.7050781 L 14.748047 2.7050781 L 14.345703 1.7167969 z "
     inkscape:export-filename="../../icon.svg"
     inkscape:export-xdpi="1806.8512"
     inkscape:export-ydpi="1806.8512" /><path
     id="path5"
     style="fill:#8da5f3;fill-opacity:1;stroke:none;stroke-width:1.65681;stroke-linecap:round;stroke-linejoin:miter;stroke-miterlimit:10;stroke-dasharray:none;stroke-opacity:1;paint-order:markers stroke fill"
     d="m 49.888175,-91.041076 a 32.002629,32.002629 0 0 0 -31.981618,32.018377 32.002629,32.002629 0 0 0 6.580118,19.299239 l 7.462388,-7.27856 17.939112,-40.951185 h 1.139633 l 6.580118,15.880526 12.241246,-11.983901 a 32.002629,32.002629 0 0 0 -19.960997,-6.984496 z m 23.342895,10.145882 -13.748423,13.417581 10.807585,26.063185 H 32.757798 l -5.25675,5.146457 a 32.002629,32.002629 0 0 0 22.387127,9.226873 32.002629,32.002629 0 0 0 32.018377,-31.981601 32.002629,32.002629 0 0 0 -8.675482,-21.872495 z m -24.555989,3.198164 -10.991394,25.07064 15.145326,-14.814465 z m 6.028709,14.851242 -19.041931,18.600796 h 26.614594 z"
     inkscape:export-filename="../../icon.svg"
     inkscape:export-xdpi="96"
     inkscape:export-ydpi="96" /><path
     fill="#e0e0e0"
     d="m 1.6491465,1.9580648 a 1,1 0 0 0 -1.00000001,1 c 0,1.5 0.96700001,2.625 1.87300001,3.66 0.76,0.87 1.416,1.643 1.875,2.34 -0.459,0.697 -1.114,1.4720002 -1.875,2.3420002 -0.906,1.035 -1.87300001,2.158 -1.87300001,3.658 a 1,1 0 0 0 1.00000001,1 h 9.9999995 a 1,1 0 0 0 1,-1 c 0,-1.5 -0.967,-2.623 -1.873,-3.658 -0.76,-0.87 -1.4159995,-1.6450002 -1.8749995,-2.3420002 0.459,-0.697 1.1139995,-1.47 1.8749995,-2.34 0.906,-1.035 1.873,-2.16 1.873,-3.66 a 1,1 0 0 0 -1,-1 z m 8.4119995,2 c -0.2379995,0.44 -0.3049995,0.79 -0.7889995,1.342 -0.844,0.964 -1.898,1.972 -2.518,3.21 a 1,1 0 0 0 -0.105,0.448 1,1 0 0 0 -0.106,-0.447 c -0.619,-1.239 -1.673,-2.247 -2.517,-3.211 -0.484,-0.553 -0.551,-0.901 -0.79,-1.342 z"
     id="path1" /></svg>
